<?xml version="1.0" encoding="utf-8"?>
<!-- Generator: Adobe Illustrator 27.7.0, SVG Export Plug-In . SVG Version: 6.00 Build 0)  -->
<svg version="1.0" id="Layer_1" xmlns="http://www.w3.org/2000/svg" xmlns:xlink="http://www.w3.org/1999/xlink" x="0px" y="0px"
	 viewBox="0 0 4000 4000" enable-background="new 0 0 4000 4000" xml:space="preserve">
<g>
	<g>
		<polygon fill="#19A7C2" points="3645.7,2061.9 3645.7,3078.1 3391.7,3078.1 3391.7,2697.1 2794.2,2697.1 2629.5,2532.4 
			2629.5,2061.9 2883.6,2061.9 2883.6,2443 3391.7,2443 3391.7,2316 		"/>
	</g>
	<path fill="#19A7C2" d="M2883.6,1302.9v-127h508.1l254.1-254.1h-851.5l-164.7,164.7v686.8l164.7,164.7H3481l164.7-164.7v-305.7
		L3481,1302.9H2883.6z M3391.7,1684h-508.1v-127h508.1V1684z"/>
	<path d="M2161.1,921.9h-189.6h-269.5h-539.1H893.3H354.3v539.1v269.5v539.1v269.5v539.1h539.1h269.5h539.1h269.5h539.1v-539.1
		v-267.2l-2.4-2.4h2.4L2238.6,2000l271.9-269.5h-2.4l2.4-2.4v-267.2v-189.6L2161.1,921.9z M1971.5,2539.1h-269.5h-539.1H893.3
		v-269.5v-539.1v-269.5h269.5h539.1h269.5v0l-269,269.5h-0.6h-539.1v539.1h539.1h269.5V2539.1z"/>
</g>
</svg>
