<?xml version="1.0" encoding="utf-8"?>
<!-- Generator: Adobe Illustrator 27.7.0, SVG Export Plug-In . SVG Version: 6.00 Build 0)  -->
<svg version="1.0" id="Layer_1" xmlns="http://www.w3.org/2000/svg" xmlns:xlink="http://www.w3.org/1999/xlink" x="0px" y="0px"
	 viewBox="0 0 4000 4000" enable-background="new 0 0 4000 4000" xml:space="preserve">
<g>
	<g>
		<g>
			<polygon fill="#19A7C2" points="3392.7,1795.7 3392.7,3123.7 3060.7,3123.7 3060.7,2625.7 2279.9,2625.7 2064.7,2410.5 
				2064.7,1795.7 2396.7,1795.7 2396.7,2293.7 3060.7,2293.7 3060.7,2127.7 			"/>
		</g>
		<path fill="#19A7C2" d="M939.3,2293.7v-166h664l332-332H822.5l-215.2,215.2v897.5l215.2,215.2h897.5l215.2-215.2v-399.5
			l-215.2-215.2H939.3z M1603.3,2791.7h-664v-166h664V2791.7z"/>
	</g>
	<g>
		<g>
			<g>
				<polygon points="3012.2,1256.9 3012.1,1256.9 3012.1,1256.9 				"/>
				<polygon points="3012.2,1256.9 3012.1,1256.9 3012.1,1256.9 				"/>
				<polygon points="3012.2,1256.9 3012.1,1256.9 3012.1,1256.9 				"/>
				<g>
					<polygon points="2821.9,1447.2 2821.9,1447.2 2821.9,1447.2 					"/>
				</g>
			</g>
			<polygon points="3202.4,1066.6 3202.4,1066.6 3202.4,1066.6 			"/>
			<polygon points="3202.5,1447.2 3202.4,1447.2 3202.4,1447.1 			"/>
			<polygon points="3012.2,1256.9 3012.1,1256.9 3012.1,1256.9 			"/>
			<polygon points="3107.3,1161.8 3012.2,1256.9 3012.1,1256.9 3012.1,1256.9 3012.2,1256.9 3107.3,1352 3202.4,1447.1 
				3202.4,1447.2 3202.5,1447.2 3392.7,1637.4 3392.7,1637.5 3123.6,1637.5 3012.1,1526 2933.4,1447.2 2877.6,1391.5 2821.9,1447.2 
				2821.9,1447.2 2821.9,1637.5 2631.6,1637.5 2631.6,876.3 2821.9,876.3 2821.9,1178.1 2838.2,1161.8 2877.6,1122.4 2933.4,1066.6 
				3012.1,987.8 3123.6,876.3 3392.7,876.3 3392.7,876.4 3202.4,1066.6 3202.4,1066.6 3202.4,1066.6 			"/>
		</g>
		<path d="M1245.1,876.3h-66.9H1083H892.7h-95.1H607.3v190.3v95.1V1352v95.1v190.3h190.3h95.1H1083h95.1h190.3v-190.3v-94.3
			l-0.8-0.8h0.8l-96-95.1l96-95.1h-0.8l0.8-0.8v-94.3v-66.9L1245.1,876.3z M1178.1,1447.2H1083H892.7h-95.1V1352v-190.3v-95.1h95.1
			H1083h95.1v0l-94.9,95.1h-0.2H892.7V1352H1083h95.1V1447.2z"/>
		<polygon points="2233.5,876.3 2233.5,1192.9 2011.2,1415.2 2233.5,1637.5 1964.4,1637.5 1742.1,1415.2 1805.2,1352 1852.9,1304.3 
			1876.6,1280.6 1995.5,1161.8 2043.2,1114.1 2043.2,1066.6 1662.6,1066.6 1662.6,1637.5 1472.3,1637.5 1472.3,876.3 		"/>
		<g>
			<polygon points="2527.7,876.3 2527.7,977.9 2337.4,1168.2 2337.4,876.3 			"/>
			<polygon points="2337.4,1260.6 2527.7,1070.3 2527.7,1637.5 2337.4,1637.5 			"/>
		</g>
	</g>
</g>
</svg>
