<svg xmlns="http://www.w3.org/2000/svg" xmlns:xlink="http://www.w3.org/1999/xlink" width="1000" zoomAndPan="magnify" viewBox="0 0 750 233.04" height="300" preserveAspectRatio="xMidYMid meet" version="1.0"><path fill="#ffffff" d="M 420.617188 98.144531 L 406.726562 112.039062 L 406.707031 112.039062 L 406.726562 112.039062 L 434.511719 139.824219 L 434.511719 139.84375 L 462.296875 167.628906 L 422.988281 167.628906 L 406.707031 151.34375 L 395.203125 139.84375 L 387.0625 131.703125 L 378.921875 139.84375 L 378.921875 167.628906 L 351.117188 167.628906 L 351.117188 56.449219 L 378.921875 56.449219 L 378.921875 100.535156 L 387.0625 92.394531 L 395.203125 84.234375 L 422.988281 56.449219 L 462.296875 56.449219 L 434.511719 84.234375 L 434.511719 84.253906 Z M 420.617188 98.144531 " fill-opacity="1" fill-rule="nonzero"/><path fill="#19a7c2" d="M 694.570312 56.449219 L 694.570312 167.628906 L 666.785156 167.628906 L 666.785156 125.929688 L 601.410156 125.929688 L 583.390625 107.910156 L 583.390625 56.449219 L 611.195312 56.449219 L 611.195312 98.144531 L 666.785156 98.144531 L 666.785156 84.234375 Z M 694.570312 56.449219 " fill-opacity="1" fill-rule="nonzero"/><path fill="#19a7c2" d="M 489.167969 98.144531 L 489.167969 84.253906 L 544.757812 84.253906 L 572.5625 56.449219 L 479.402344 56.449219 L 461.382812 74.46875 L 461.382812 149.609375 L 479.402344 167.628906 L 554.542969 167.628906 L 572.5625 149.609375 L 572.5625 116.164062 L 554.542969 98.144531 Z M 544.757812 139.84375 L 489.167969 139.84375 L 489.167969 125.949219 L 544.757812 125.949219 Z M 544.757812 139.84375 " fill-opacity="1" fill-rule="nonzero"/><path fill="#ffffff" d="M 148.589844 56.449219 L 55.429688 56.449219 L 55.429688 167.648438 L 166.609375 167.648438 L 166.609375 126.0625 L 166.476562 125.929688 L 166.609375 125.929688 L 152.585938 112.039062 L 166.609375 98.144531 L 166.476562 98.144531 L 166.609375 98.015625 L 166.609375 74.449219 Z M 138.804688 139.84375 L 83.214844 139.84375 L 83.214844 84.253906 L 138.804688 84.253906 L 124.929688 98.144531 L 97.105469 98.144531 L 97.105469 125.949219 L 138.804688 125.949219 Z M 138.804688 139.84375 " fill-opacity="1" fill-rule="nonzero"/><path fill="#ffffff" d="M 292.96875 56.449219 L 292.96875 102.683594 L 260.496094 135.15625 L 292.96875 167.628906 L 253.664062 167.628906 L 221.191406 135.15625 L 230.394531 125.929688 L 237.378906 118.964844 L 265.164062 91.179688 L 265.164062 84.234375 L 209.574219 84.234375 L 209.574219 167.628906 L 181.789062 167.628906 L 181.789062 56.449219 Z M 292.96875 56.449219 " fill-opacity="1" fill-rule="nonzero"/><path fill="#ffffff" d="M 335.9375 56.449219 L 335.9375 71.273438 L 308.148438 99.078125 L 308.148438 56.449219 Z M 335.9375 56.449219 " fill-opacity="1" fill-rule="nonzero"/><path fill="#ffffff" d="M 308.148438 112.578125 L 335.9375 84.777344 L 335.9375 167.628906 L 308.148438 167.628906 Z M 308.148438 112.578125 " fill-opacity="1" fill-rule="nonzero"/></svg>