<?xml version="1.0" encoding="utf-8"?>
<!-- Generator: Adobe Illustrator 27.7.0, SVG Export Plug-In . SVG Version: 6.00 Build 0)  -->
<svg version="1.0" id="Layer_1" xmlns="http://www.w3.org/2000/svg" xmlns:xlink="http://www.w3.org/1999/xlink" x="0px" y="0px"
	 viewBox="0 0 4000 4000" enable-background="new 0 0 4000 4000" xml:space="preserve">
<g>
	<polygon points="2111,2241.9 2110.9,2241.9 2110.9,2241.9 	"/>
	<g>
		<g>
			<polygon points="2169.9,2000 2169.8,2000 2169.8,2000 			"/>
			<polygon points="2169.9,2000 2169.8,2000 2169.8,2000 			"/>
			<polygon points="2169.9,2000 2169.8,2000 2169.8,2000 			"/>
			<g>
				<polygon points="2021,2148.9 2021,2148.9 2021,2148.9 				"/>
			</g>
		</g>
		<polygon points="2318.7,1851.1 2318.7,1851.2 2318.7,1851.1 		"/>
		<polygon points="2318.7,2148.9 2318.7,2148.9 2318.7,2148.8 		"/>
		<polygon points="2169.9,2000 2169.8,2000 2169.8,2000 		"/>
		<polygon points="2244.3,1925.6 2169.9,2000 2169.8,2000 2169.8,2000 2169.9,2000 2244.3,2074.4 2318.7,2148.8 2318.7,2148.9 
			2318.7,2148.9 2467.5,2297.7 2467.5,2297.7 2257,2297.7 2169.8,2210.5 2108.2,2148.9 2064.6,2105.3 2021,2148.9 2021,2148.9 
			2021,2297.7 1872.1,2297.7 1872.1,1702.3 2021,1702.3 2021,1938.4 2033.8,1925.6 2064.6,1894.8 2108.2,1851.1 2169.8,1789.5 
			2257,1702.3 2467.5,1702.3 2467.5,1702.3 2318.7,1851.1 2318.7,1851.1 2318.7,1851.2 		"/>
	</g>
	<g>
		<polygon fill="#19A7C2" points="3711.4,1702.3 3711.4,2297.7 3562.6,2297.7 3562.6,2074.4 3212.5,2074.4 3116,1977.9 3116,1702.3 
			3264.9,1702.3 3264.9,1925.6 3562.6,1925.6 3562.6,1851.1 		"/>
	</g>
	<path fill="#19A7C2" d="M2611.4,1925.6v-74.4h297.7l148.9-148.9h-498.9l-96.5,96.5v402.4l96.5,96.5h402.4l96.5-96.5v-179.1
		l-96.5-96.5H2611.4z M2909.1,2148.9h-297.7v-74.4h297.7V2148.9z"/>
	<path d="M787.5,1702.3h-52.4h-74.4H511.8h-74.4H288.6v148.9v74.4v148.9v74.4v148.9h148.9h74.4h148.9h74.4H884v-148.9v-73.8
		l-0.7-0.7h0.7l-75.1-74.4l75.1-74.4h-0.7l0.7-0.7v-73.8v-52.4L787.5,1702.3z M735.1,2148.9h-74.4H511.8h-74.4v-74.4v-148.9v-74.4
		h74.4h148.9h74.4v0l-74.3,74.4h-0.2H511.8v148.9h148.9h74.4V2148.9z"/>
	<polygon points="1560.7,1702.3 1560.7,1949.9 1386.8,2123.8 1560.7,2297.7 1350.2,2297.7 1176.3,2123.8 1225.6,2074.4 1263,2037.1 
		1281.5,2018.6 1374.5,1925.6 1411.8,1888.3 1411.8,1851.1 1114.1,1851.1 1114.1,2297.7 965.3,2297.7 965.3,1702.3 	"/>
	<g>
		<polygon points="1790.8,1702.3 1790.8,1781.7 1642,1930.6 1642,1702.3 		"/>
		<polygon points="1642,2002.9 1790.8,1854 1790.8,2297.7 1642,2297.7 		"/>
	</g>
	<polygon points="2318.7,1851.1 2318.7,1851.2 2318.7,1851.1 	"/>
</g>
</svg>
