<svg width="72" height="80" viewBox="0 0 72 80" fill="none" xmlns="http://www.w3.org/2000/svg">
    <style>
        .fill-color {
        fill: black;
        }

        @media (prefers-color-scheme: dark) {
        .fill-color {
        fill: white;
        }
        }
    </style>
    <path d="M14.8645 43.0058C19.4823 43.0058 23.2258 46.7324 23.2258 51.3295V62.0809C23.2258 64.3156 25.0456 66.1272 27.2903 66.1272H44.7097C46.9544 66.1272 48.7742 64.3156 48.7742 62.0809V51.3295C48.7742 46.7324 52.5177 43.0058 57.1355 43.0058H72V57.8035C72 62.4005 68.2565 66.1272 63.6387 66.1272H52.8387C50.5939 66.1272 48.7742 67.9387 48.7742 70.1734V75.8382C48.7742 78.1367 46.9025 80 44.5935 80H27.4065C25.0975 80 23.2258 78.1367 23.2258 75.8382V70.1734C23.2258 67.9387 21.4061 66.1272 19.1613 66.1272H8.36129C3.74348 66.1272 1.79573e-07 62.4005 0 57.8035V43.0058H14.8645Z"
          class="fill-color"/>
    <path d="M44.5935 0C46.9025 3.12819e-07 48.7742 1.86332 48.7742 4.16185V9.82659C48.7742 12.0613 50.5939 13.8728 52.8387 13.8728H63.6387C68.2565 13.8728 72 17.5995 72 22.1965V36.9942H57.1355C52.5177 36.9942 48.7742 33.2676 48.7742 28.6705V17.9191C48.7742 15.6844 46.9544 13.8728 44.7097 13.8728H27.2903C25.0456 13.8728 23.2258 15.6844 23.2258 17.9191V28.6705C23.2258 33.2676 19.4823 36.9942 14.8645 36.9942H0V22.1965C1.79573e-07 17.5995 3.74348 13.8728 8.36129 13.8728H19.1613C21.4061 13.8728 23.2258 12.0613 23.2258 9.82659V4.16185C23.2258 1.86332 25.0975 0 27.4065 0H44.5935Z"
          class="fill-color"/>
</svg>
