<svg width="1600" height="900" viewBox="0 0 1600 900" fill="none" xmlns="http://www.w3.org/2000/svg">
  <rect width="1600" height="900" fill="#071119"/>
  <rect width="1600" height="900" fill="url(#paint0_radial)"/>
  <rect x="196" y="130" width="1208" height="640" rx="40" fill="#0F1821" stroke="#1F3342"/>
  <rect x="278" y="210" width="1044" height="80" rx="20" fill="#12232D"/>
  <rect x="278" y="320" width="1044" height="80" rx="20" fill="#12232D"/>
  <rect x="278" y="430" width="1044" height="80" rx="20" fill="#12232D"/>
  <rect x="278" y="540" width="1044" height="80" rx="20" fill="#12232D"/>
  <path d="M338 250H588" stroke="#3AD3EA" stroke-width="16" stroke-linecap="round"/>
  <path d="M338 360H540" stroke="#D8FAFF" stroke-opacity="0.55" stroke-width="14" stroke-linecap="round"/>
  <path d="M338 470H612" stroke="#D8FAFF" stroke-opacity="0.55" stroke-width="14" stroke-linecap="round"/>
  <path d="M338 580H524" stroke="#D8FAFF" stroke-opacity="0.55" stroke-width="14" stroke-linecap="round"/>
  <rect x="1086" y="228" width="176" height="44" rx="22" fill="#123845" stroke="#3AD3EA"/>
  <rect x="1086" y="338" width="176" height="44" rx="22" fill="#123845" stroke="#72E5C5"/>
  <rect x="1086" y="448" width="176" height="44" rx="22" fill="#123845" stroke="#3AD3EA"/>
  <rect x="1086" y="558" width="176" height="44" rx="22" fill="#123845" stroke="#F5C15E"/>
  <text x="120" y="100" fill="#F4FEFF" font-family="Arial, Helvetica, sans-serif" font-size="42" font-weight="700">Compliance Ledger</text>
  <text x="120" y="820" fill="#A2E5F0" font-family="Arial, Helvetica, sans-serif" font-size="28" letter-spacing="6">CONTROL SCOPE · SUPPORTING EVIDENCE · LIMITATIONS</text>
  <defs>
    <radialGradient id="paint0_radial" cx="0" cy="0" r="1" gradientUnits="userSpaceOnUse" gradientTransform="translate(1149 162) rotate(149.688) scale(1036.67 1047.55)">
      <stop stop-color="#139AB4" stop-opacity="0.34"/>
      <stop offset="1" stop-color="#071119" stop-opacity="0"/>
    </radialGradient>
  </defs>
</svg>
