<svg width="1600" height="900" viewBox="0 0 1600 900" fill="none" xmlns="http://www.w3.org/2000/svg">
  <rect width="1600" height="900" fill="#0A0F16"/>
  <rect width="1600" height="900" fill="url(#paint0_radial)"/>
  <rect x="120" y="126" width="1360" height="648" rx="40" fill="#0F1722" stroke="#1E3A4C"/>
  <rect x="182" y="188" width="272" height="524" rx="28" fill="#101D28" stroke="#1E3A4C"/>
  <rect x="218" y="240" width="160" height="16" rx="8" fill="#D7F8FF" opacity="0.88"/>
  <rect x="218" y="288" width="186" height="12" rx="6" fill="#D7F8FF" opacity="0.42"/>
  <rect x="218" y="346" width="196" height="88" rx="24" fill="#112B35" stroke="#3AD3EA"/>
  <rect x="218" y="458" width="196" height="88" rx="24" fill="#112B35" stroke="#3AD3EA" opacity="0.7"/>
  <rect x="218" y="570" width="196" height="88" rx="24" fill="#112B35" stroke="#3AD3EA" opacity="0.45"/>
  <rect x="498" y="188" width="918" height="146" rx="28" fill="#101D28" stroke="#1E3A4C"/>
  <rect x="498" y="370" width="918" height="342" rx="28" fill="#101D28" stroke="#1E3A4C"/>
  <path d="M554 252H758" stroke="#3AD3EA" stroke-width="18" stroke-linecap="round"/>
  <path d="M792 252H1001" stroke="#D7F8FF" stroke-opacity="0.5" stroke-width="18" stroke-linecap="round"/>
  <path d="M554 442H1360" stroke="#1E3A4C" stroke-width="2"/>
  <path d="M554 524H1360" stroke="#1E3A4C" stroke-width="2"/>
  <path d="M554 606H1360" stroke="#1E3A4C" stroke-width="2"/>
  <circle cx="602" cy="483" r="18" fill="#3AD3EA"/>
  <circle cx="602" cy="565" r="18" fill="#3AD3EA" opacity="0.72"/>
  <circle cx="602" cy="647" r="18" fill="#3AD3EA" opacity="0.48"/>
  <text x="120" y="92" fill="#F4FEFF" font-family="Arial, Helvetica, sans-serif" font-size="42" font-weight="700">Registry Atlas</text>
  <text x="120" y="830" fill="#A3E8F3" font-family="Arial, Helvetica, sans-serif" font-size="28" letter-spacing="6">CERTIFIED PACKAGES · RECOMPOSITION · STATE</text>
  <defs>
    <radialGradient id="paint0_radial" cx="0" cy="0" r="1" gradientUnits="userSpaceOnUse" gradientTransform="translate(1161 180) rotate(146.64) scale(1021.79 1041.68)">
      <stop stop-color="#1CA7BF" stop-opacity="0.32"/>
      <stop offset="1" stop-color="#0A0F16" stop-opacity="0"/>
    </radialGradient>
  </defs>
</svg>
